<svg xmlns="http://www.w3.org/2000/svg" viewBox="0 0 512 512">
  <rect width="512" height="512" rx="64" fill="#4A90A4"/>
  <g fill="#fff">
    <!-- Airplane icon -->
    <path d="M400 176l-48 48-96-32-64 64 64 32-32 64 32 32 64-32 32 64 32-32-64-96 32-64 96 64 48-48c17.7-17.7 17.7-46.3 0-64s-46.3-17.7-64 0z"/>
    <!-- Map pin -->
    <circle cx="160" cy="320" r="48"/>
    <path d="M160 240c-44.2 0-80 35.8-80 80 0 60 80 120 80 120s80-60 80-120c0-44.2-35.8-80-80-80zm0 104c-13.3 0-24-10.7-24-24s10.7-24 24-24 24 10.7 24 24-10.7 24-24 24z"/>
  </g>
</svg>
